<?xml version="1.0" encoding="UTF-8" standalone="no"?>
<!-- Created with Inkscape (http://www.inkscape.org/) -->

<svg
   width="47.54565"
   height="64.000008"
   viewBox="0 0 12.579786 16.933336"
   version="1.1"
   id="svg5"
   xmlns:inkscape="http://www.inkscape.org/namespaces/inkscape"
   xmlns:sodipodi="http://sodipodi.sourceforge.net/DTD/sodipodi-0.dtd"
   xmlns="http://www.w3.org/2000/svg"
   xmlns:svg="http://www.w3.org/2000/svg">
  <sodipodi:namedview
     id="namedview7"
     pagecolor="#ffffff"
     bordercolor="#000000"
     borderopacity="0.25"
     inkscape:showpageshadow="2"
     inkscape:pageopacity="0.0"
     inkscape:pagecheckerboard="0"
     inkscape:deskcolor="#d1d1d1"
     inkscape:document-units="mm"
     showgrid="false" />
  <defs
     id="defs2" />
  <g
     inkscape:label="Calque 1"
     inkscape:groupmode="layer"
     id="layer1"
     transform="translate(-66.689861,-112.80673)">
    <path
       id="rect609"
       style="opacity:1;fill:#d1e8fb;fill-opacity:1;stroke:#000000;stroke-width:0.519435;stroke-linejoin:round;stroke-dasharray:none;stroke-opacity:1"
       d="m 70.20022,113.06645 a 4.7691228,2.9051317 38.593861 0 1 -0.124549,2.94314 4.7691228,2.9051317 38.593861 0 1 -3.126093,0.44967 v 13.02109 H 79.00993 v -16.4139 z" />
    <path
       id="rect6224"
       style="opacity:1;fill:#000101;fill-opacity:1;stroke:none;stroke-width:0.0711183;stroke-linejoin:round;stroke-opacity:1"
       d="m 73.937236,118.52165 a 0.80488906,1.6169883 49.261282 0 0 -0.655568,1.65337 0.80488906,1.6169883 49.261282 0 0 1.767549,-0.48723 0.80488906,1.6169883 49.261282 0 0 0.772541,-1.3878 c 0.02152,-0.011 0.04198,-0.0247 0.06081,-0.0414 l 2.579435,-2.27868 c 0.119082,-0.1052 0.126965,-0.28225 0.01767,-0.39687 -0.1093,-0.11461 -0.293175,-0.12215 -0.41226,-0.017 l -2.579435,2.27869 c -0.01877,0.0166 -0.03476,0.0349 -0.04797,0.0545 a 0.80488906,1.6169883 49.261282 0 0 -1.502765,0.62233 z" />
    <path
       id="path1953"
       style="opacity:1;fill:#3697fc;fill-opacity:1;stroke:#000000;stroke-width:0.519435;stroke-linejoin:round;stroke-dasharray:none;stroke-opacity:1"
       d="m 69.574362,118.71881 a 3.5207598,3.5207598 0 0 0 3.405434,2.63829 3.5207598,3.5207598 0 0 0 3.40535,-2.63829 z" />
    <rect
       style="opacity:1;fill:#000101;fill-opacity:1;stroke:none;stroke-width:0.160784;stroke-linejoin:round;stroke-opacity:1"
       id="rect5850"
       width="9.707159"
       height="0.64714396"
       x="68.126175"
       y="122.59714"
       ry="0.32357198" />
    <rect
       style="opacity:1;fill:#000101;fill-opacity:1;stroke:none;stroke-width:0.160784;stroke-linejoin:round;stroke-opacity:1"
       id="rect6164"
       width="9.707159"
       height="0.64714396"
       x="68.126175"
       y="123.97968"
       ry="0.32357198" />
    <rect
       style="opacity:1;fill:#000101;fill-opacity:1;stroke:none;stroke-width:0.160784;stroke-linejoin:round;stroke-opacity:1"
       id="rect6166"
       width="9.707159"
       height="0.64714396"
       x="68.126175"
       y="125.33279"
       ry="0.32357198" />
    <rect
       style="opacity:1;fill:#000101;fill-opacity:1;stroke:none;stroke-width:0.160784;stroke-linejoin:round;stroke-opacity:1"
       id="rect6168"
       width="9.707159"
       height="0.64714396"
       x="68.126175"
       y="126.65649"
       ry="0.32357198" />
    <rect
       style="opacity:1;fill:#000101;fill-opacity:1;stroke:none;stroke-width:0.160784;stroke-linejoin:round;stroke-opacity:1"
       id="rect6170"
       width="9.707159"
       height="0.64714396"
       x="68.126175"
       y="128.00961"
       ry="0.32357198" />
  </g>
</svg>
