<?xml version="1.0" encoding="UTF-8" standalone="no"?>
<!-- Created with Inkscape (http://www.inkscape.org/) -->

<svg
   width="51.793896"
   height="63.999996"
   viewBox="0 0 13.703801 16.933332"
   version="1.1"
   id="svg5"
   inkscape:export-filename="trash.svg"
   inkscape:export-xdpi="96"
   inkscape:export-ydpi="96"
   sodipodi:docname="trash.svg"
   xmlns:inkscape="http://www.inkscape.org/namespaces/inkscape"
   xmlns:sodipodi="http://sodipodi.sourceforge.net/DTD/sodipodi-0.dtd"
   xmlns="http://www.w3.org/2000/svg"
   xmlns:svg="http://www.w3.org/2000/svg">
  <sodipodi:namedview
     id="namedview7"
     pagecolor="#ffffff"
     bordercolor="#000000"
     borderopacity="0.25"
     inkscape:showpageshadow="2"
     inkscape:pageopacity="0.0"
     inkscape:pagecheckerboard="0"
     inkscape:deskcolor="#d1d1d1"
     inkscape:document-units="px"
     showgrid="false" />
  <defs
     id="defs2" />
  <g
     inkscape:label="Calque 1"
     inkscape:groupmode="layer"
     id="layer1"
     transform="translate(3.2798889e-8,-13.276731)">
    <path
       id="rect240"
       style="fill:#aa0000;stroke:#aa0000;stroke-width:0.775573;stroke-linejoin:round;stroke-dasharray:none;stroke-opacity:1"
       d="M 0.73416824,16.086666 1.9576137,29.822278 h 9.7885733 l 1.223445,-13.735612 z m 2.53929316,1.010366 a 0.89013769,0.89013769 0 0 1 0.79375,0.977039 v 9.877946 A 0.81448946,0.81448946 0 0 1 3.2527592,28.766469 0.9179343,0.9179343 0 0 1 2.3979126,27.78943 v -9.817355 a 0.87546812,0.87546812 0 0 1 0.8755488,-0.875043 z m 3.6193383,0 a 0.89013769,0.89013769 0 0 1 0.79375,0.977039 v 9.877946 A 0.81448946,0.81448946 0 0 1 6.8720975,28.766469 0.9179343,0.9179343 0 0 1 6.017251,27.78943 v -9.817355 a 0.87546812,0.87546812 0 0 1 0.8755487,-0.875043 z m 3.6193383,0 a 0.89013769,0.89013769 0 0 1 0.79375,0.977039 v 9.877946 A 0.81448946,0.81448946 0 0 1 10.491436,28.766469 0.9179343,0.9179343 0 0 1 9.6365895,27.78943 v -9.817355 a 0.87546812,0.87546812 0 0 1 0.8755485,-0.875043 z" />
    <path
       id="rect549"
       style="fill:#aa0000;stroke:none;stroke-width:0.315948;stroke-opacity:1"
       d="m 4.4671159,13.276731 c -0.1130353,0 -0.1692578,0.09726 -0.2050016,0.204497 L 3.9909668,14.295175 H 0.3701137 A 0.36995725,0.36995725 0 0 0 0,14.664784 v 0.278721 a 0.36995725,0.36995725 0 0 0 0.3701137,0.370113 H 13.333687 a 0.36995725,0.36995725 0 0 0 0.370114,-0.370113 V 14.664784 A 0.36995725,0.36995725 0 0 0 13.333687,14.295175 H 9.7426248 L 9.4901597,13.440833 C 9.4644737,13.3539 9.4167032,13.276731 9.3260575,13.276731 Z m 4.4575222,0.488267 A 0.24266501,0.24266501 0 0 1 9.16347,13.960912 l 0.064126,0.328203 H 4.4762047 l 0.080284,-0.329719 a 0.24246089,0.24246089 0 0 1 0.2352974,-0.185309 z" />
  </g>
</svg>
